<?xml version="1.0" encoding="UTF-8"?>
<svg version="1.1" xmlns="http://www.w3.org/2000/svg" width="460" height="460">
<path d="M0 0 C0.97614258 0.56960449 1.95228516 1.13920898 2.95800781 1.72607422 C4.62307373 2.68815796 4.62307373 2.68815796 6.32177734 3.66967773 C7.51830984 4.37323521 8.71475949 5.07693361 9.91113281 5.78076172 C11.16305948 6.50812951 12.41550974 7.23459679 13.66845703 7.96020508 C16.24589268 9.45451626 18.82039932 10.95369003 21.39257812 12.45703125 C25.94884932 15.11851606 30.52220089 17.75009783 35.09570312 20.38183594 C38.30945995 22.23168893 41.52081757 24.08564005 44.73144531 25.94091797 C51.20623303 29.68227828 57.68349624 33.41933654 64.16113281 37.15576172 C66.32781032 38.40574293 68.49447699 39.65574293 70.66113281 40.90576172 C72.26988281 41.83388672 72.26988281 41.83388672 73.91113281 42.78076172 C94.49446615 54.65576172 115.07779948 66.53076172 135.66113281 78.40576172 C136.73476074 79.02515625 137.80838867 79.64455078 138.91455078 80.28271484 C141.06984592 81.52616681 143.22511954 82.76965608 145.38037109 84.01318359 C150.38450955 86.90039046 155.38883802 89.78726602 160.39398193 92.67272949 C162.14454522 93.68195276 163.89503692 94.69130008 165.64550781 95.70068359 C167.82505446 96.95743831 170.00473114 98.21396758 172.18457031 99.47021484 C174.13050875 100.59238939 176.06531029 101.7342326 177.98522663 102.90036869 C181.07655047 104.72745853 181.07655047 104.72745853 184.31704235 105.74616909 C188.13020422 107.26288925 190.37301937 108.61405506 193.16113281 111.65576172 C195.52283477 118.60782021 194.70759702 126.51482733 194.57446289 133.74389648 C194.57594973 136.03074001 194.58260036 138.31758516 194.59402466 140.60440063 C194.60917534 146.80985888 194.54873582 153.01248528 194.47231507 159.21740842 C194.40261348 165.71005777 194.39403534 172.20282501 194.37663269 178.69578552 C194.3377447 189.59865414 194.25050987 200.50029657 194.13354492 211.40258789 C194.01326198 222.61497983 193.94351886 233.82627941 193.92651367 245.03930664 C193.90593975 258.56027873 193.84007317 272.08005285 193.73447227 285.60066032 C193.69493349 290.76207534 193.67285222 295.92313103 193.66468239 301.08468819 C193.65262015 307.16189774 193.59606035 313.23710924 193.50502396 319.31363297 C193.47869317 321.5443809 193.46761937 323.77536846 193.47285652 326.00626564 C193.47745171 329.0516147 193.42688949 332.09120706 193.36213684 335.13575745 C193.37627603 336.02009651 193.39041522 336.90443558 193.40498286 337.8155728 C193.26906233 341.68161065 193.07244196 343.80182169 190.17463148 346.51720798 C187.89234521 348.05691244 185.60328269 349.38849153 183.16113281 350.65576172 C182.25290771 351.20103516 181.34468262 351.74630859 180.40893555 352.30810547 C179.64524658 352.73220703 178.88155762 353.15630859 178.09472656 353.59326172 C177.21018799 354.08802002 176.32564941 354.58277832 175.41430664 355.0925293 C174.48513428 355.608396 173.55596191 356.1242627 172.59863281 356.65576172 C164.51174848 361.18517413 156.46950898 365.78005855 148.47363281 370.46826172 C139.77490817 375.56382943 131.04389958 380.6000109 122.28613281 385.59326172 C109.96359567 392.61996553 97.66974682 399.69518793 85.38769531 406.79248047 C82.12589274 408.67611222 78.86251437 410.55698493 75.59863281 412.43701172 C65.144003 418.46015928 54.70066944 424.50102177 44.28613281 430.59326172 C31.89431466 437.84028573 19.44911354 444.99811874 6.94580078 452.05126953 C5.30303922 452.99780898 3.67446078 453.97121212 2.08349609 455.00244141 C-1.36972466 457.22536094 -4.43090224 458.41001332 -8.59277344 458.17236328 C-13.62581355 457.01476406 -17.94166036 454.14397264 -22.33886719 451.53076172 C-23.43400635 450.898396 -24.52914551 450.26603027 -25.6574707 449.61450195 C-29.06095387 447.64437267 -32.45026587 445.65135377 -35.83886719 443.65576172 C-37.85753835 442.48110531 -39.87703748 441.30787035 -41.89746094 440.13623047 C-45.83750304 437.84804302 -49.77188769 435.55055104 -53.70214844 433.24560547 C-71.5697906 422.77626128 -89.5360508 412.46995809 -107.56982422 402.28955078 C-127.43889337 391.07276229 -147.244748 379.74783448 -166.99853516 368.3293457 C-172.85221739 364.94794541 -178.71334768 361.58011776 -184.58496094 358.22998047 C-185.22938141 357.86224518 -185.87380188 357.49450989 -186.53775024 357.1156311 C-189.67163643 355.32778201 -192.80643239 353.54154996 -195.94238281 351.75732422 C-197.06193359 351.11923828 -198.18148437 350.48115234 -199.33496094 349.82373047 C-200.32681396 349.25936279 -201.31866699 348.69499512 -202.34057617 348.11352539 C-204.21056946 347.02237617 -206.03742901 345.85672051 -207.83886719 344.65576172 C-208.1329188 341.56110127 -208.2296755 338.66667969 -208.19963074 335.56967163 C-208.20219401 334.61649508 -208.20475729 333.66331853 -208.20739824 332.68125784 C-208.21236423 329.46734953 -208.1957968 326.25390454 -208.17944336 323.04003906 C-208.1785977 320.74420686 -208.17907104 318.44837384 -208.18077087 316.15254211 C-208.18163462 309.90278941 -208.16394752 303.65320805 -208.143049 297.40349531 C-208.12434531 290.87851286 -208.12253675 284.35352685 -208.11897278 277.82852173 C-208.11069601 266.87116425 -208.09193407 255.91387033 -208.06518555 244.95654297 C-208.03765979 233.66911129 -208.01641897 222.38169673 -208.00366211 211.09423828 C-208.00287394 210.39879376 -208.00208577 209.70334924 -208.00127371 208.98683064 C-207.99735868 205.49808341 -207.99356754 202.00933606 -207.989838 198.52058864 C-207.95872424 169.56560455 -207.90565029 140.61068465 -207.83886719 111.65576172 C-207.05939728 111.21067764 -206.27992737 110.76559357 -205.47683716 110.30702209 C-202.5167612 108.61663089 -199.55681687 106.92600963 -196.59695435 105.23524475 C-195.32865377 104.51081116 -194.06030444 103.78646291 -192.79190063 103.06221008 C-177.57749182 94.37467477 -162.40676205 85.61187131 -147.24121094 76.83935547 C-136.92542333 70.87573151 -126.59765275 64.93781903 -116.21386719 59.09326172 C-102.6472345 51.45479632 -89.14013874 43.69440834 -75.82714844 35.62060547 C-71.53555247 33.03710108 -67.1655413 30.63041932 -62.75878906 28.25 C-57.91668526 25.6062761 -53.13833469 22.85180071 -48.35406494 20.10519409 C-46.5444785 19.06781508 -44.73274326 18.03428121 -42.92041016 17.00170898 C-36.95983915 13.60347717 -31.01767997 10.18077696 -25.11230469 6.68701172 C-23.55237793 5.77544312 -23.55237793 5.77544312 -21.9609375 4.84545898 C-20.00704983 3.70314457 -18.06062119 2.54794519 -16.12304688 1.37817383 C-15.2480957 0.87036377 -14.37314453 0.36255371 -13.47167969 -0.16064453 C-12.34076904 -0.83268921 -12.34076904 -0.83268921 -11.18701172 -1.51831055 C-7.03253244 -2.97959183 -3.87073919 -1.83284227 0 0 Z M-11.90917969 66.86279297 C-13.28545292 67.69156756 -14.63622507 68.56362823 -15.96386719 69.46826172 C-17.53799943 70.43845418 -19.11222306 71.40849836 -20.68652344 72.37841797 C-21.93393311 73.17723389 -21.93393311 73.17723389 -23.20654297 73.9921875 C-27.8581483 76.93190543 -32.63996942 79.64893875 -37.40136719 82.40576172 C-39.43655169 83.59842184 -41.47170749 84.79113094 -43.50683594 85.98388672 C-51.04486116 90.3774382 -58.66026179 94.63051812 -66.2902832 98.86181641 C-70.86342313 101.40316531 -75.40436505 103.97362474 -79.87792969 106.68701172 C-84.21074078 109.3109204 -88.62351458 111.75224615 -93.07958984 114.15966797 C-97.59136069 116.60597231 -102.05880456 119.12986142 -106.52636719 121.65576172 C-107.49880371 122.20538574 -108.47124023 122.75500977 -109.47314453 123.32128906 C-120.6559578 129.6601813 -131.76782409 136.123689 -142.83886719 142.65576172 C-144.12795534 143.23916887 -144.12795534 143.23916887 -145.44308567 143.83436203 C-148.12384196 145.46917622 -148.12384196 145.46917622 -148.51111507 148.57548904 C-148.53290105 149.77738247 -148.55468702 150.97927589 -148.57713318 152.21759033 C-148.59566646 152.88743981 -148.61419974 153.55728929 -148.63329464 154.24743724 C-148.68880143 156.49734925 -148.70819959 158.74608726 -148.72729492 160.99658203 C-148.75858291 162.60816955 -148.79169846 164.21972248 -148.82650757 165.83123779 C-148.93041124 171.13189036 -148.97937229 176.43244192 -149.02246094 181.73388672 C-149.03942603 183.56210109 -149.05643019 185.3903151 -149.07347298 187.21852875 C-149.14009437 194.83100408 -149.19172045 202.44334213 -149.20548916 210.05611038 C-149.22584667 220.94542862 -149.33338396 231.82570781 -149.56484073 242.71264958 C-149.72061715 250.3779618 -149.77567065 258.04012387 -149.75755268 265.70697474 C-149.74932131 270.28165587 -149.78360749 274.84629892 -149.9258709 279.41898346 C-151.152357 298.0612971 -151.152357 298.0612971 -144.35545731 314.58885193 C-138.25946059 319.52258319 -131.56995211 322.50725922 -124.27653694 325.25223541 C-118.46282859 327.62584695 -113.20391178 330.91912233 -107.83886719 334.15576172 C-105.68112061 335.40602344 -103.52123691 336.65261057 -101.35839844 337.89404297 C-96.95927644 340.43192165 -92.56092398 342.97112754 -88.16308594 345.51123047 C-78.19238704 351.2688447 -68.21736039 357.01778728 -58.21386719 362.71826172 C-50.60837543 367.0554535 -43.02930336 371.43658405 -35.46386719 375.84326172 C-34.45195312 376.42986572 -33.44003906 377.01646973 -32.39746094 377.62084961 C-27.94635955 380.21064099 -23.52728597 382.82290129 -19.19824219 385.61279297 C-18.5142334 386.04760986 -17.83022461 386.48242676 -17.12548828 386.93041992 C-15.89809432 387.71717475 -14.6810662 388.52047936 -13.47802734 389.34399414 C-11.69496353 390.54418605 -11.69496353 390.54418605 -8.83886719 391.65576172 C-4.64999431 390.57767963 -1.12933625 388.84506552 2.59082031 386.67138672 C3.62078125 386.07326172 4.65074219 385.47513672 5.71191406 384.85888672 C7.35740234 383.89208984 7.35740234 383.89208984 9.03613281 382.90576172 C10.19860025 382.2281755 11.36136578 381.55110045 12.52441406 380.87451172 C15.50262951 379.14031433 18.47711906 377.39983609 21.45056152 375.6574707 C25.04362931 373.55337349 28.64174389 371.45791633 32.23876953 369.3605957 C34.20194861 368.2153259 36.164505 367.06898808 38.12646484 365.92163086 C43.22539107 362.94135473 48.33309383 359.97787351 53.45800781 357.04248047 C68.51664635 348.41433705 83.38453742 339.51390649 98.19189453 330.46484375 C101.91876924 328.19415294 105.66204299 325.9520024 109.41113281 323.71826172 C114.65219408 320.58221686 119.85352513 317.38715543 125.03613281 314.15576172 C126.08269043 313.50426147 126.08269043 313.50426147 127.15039062 312.83959961 C130.32376092 310.96872017 130.32376092 310.96872017 133.16113281 308.65576172 C133.31063346 306.5876445 133.38987907 304.51444072 133.44288635 302.44160461 C133.46067436 301.78500908 133.47846236 301.12841354 133.4967894 300.45192116 C133.55497492 298.23521823 133.60546681 296.0184143 133.65551758 293.80151367 C133.69449968 292.2181879 133.73359014 290.6348648 133.77278137 289.05154419 C134.11960547 274.54998285 134.32328152 260.04598364 134.48675632 245.54131794 C134.59929235 235.79093692 134.75673356 226.04550272 135.02661133 216.2980957 C135.26202769 207.79353473 135.41174379 199.29246063 135.45992702 190.784702 C135.4882451 186.28307446 135.55750826 181.79098347 135.72921944 177.29235268 C137.13280991 159.0765247 137.13280991 159.0765247 130.81623268 142.80179214 C125.13451379 138.10461507 118.89802336 135.2400138 112.00930309 132.73747635 C108.13595934 131.26640819 104.81901173 129.30178836 101.29003906 127.14013672 C99.10176695 125.89441364 96.9129808 124.649593 94.72363281 123.40576172 C86.35917353 118.64439372 78.00931304 113.86212171 69.74731445 108.92431641 C65.26977738 106.26030177 60.71482115 103.75604825 56.13549805 101.27148438 C50.89959106 98.42725615 45.68571832 95.5433585 40.47363281 92.65576172 C39.60896896 92.17686493 39.60896896 92.17686493 38.72683716 91.68829346 C29.13553751 86.37022468 19.63439702 80.91066559 10.20336914 75.31201172 C8.39948987 74.24672743 6.58844605 73.19345639 4.76953125 72.15405273 C3.00777414 71.14208125 1.26611597 70.09441344 -0.45507812 69.01489258 C-5.94720549 65.73030304 -5.94720549 65.73030304 -11.90917969 66.86279297 Z " fill="#2379BD" transform="translate(237.8388671875,2.34423828125)"/>
<path d="M0 0 C2.3581543 1.04711914 2.3581543 1.04711914 4.82421875 2.53515625 C5.7584668 3.09033936 6.69271484 3.64552246 7.65527344 4.2175293 C8.6559082 4.82636963 9.65654297 5.43520996 10.6875 6.0625 C12.83144536 7.34212797 14.97599941 8.62073655 17.12109375 9.8984375 C18.23983887 10.56842773 19.35858398 11.23841797 20.51123047 11.92871094 C24.06034713 14.04469172 27.63741625 16.11002285 31.22265625 18.1640625 C31.81282028 18.50237595 32.40298431 18.84068939 33.0110321 19.18925476 C35.87933634 20.8323245 38.74925183 22.47255424 41.61987305 24.11157227 C42.65797119 24.70768311 43.69606934 25.30379395 44.765625 25.91796875 C45.68118164 26.44156982 46.59673828 26.9651709 47.54003906 27.50463867 C52.0716599 30.25932085 52.0716599 30.25932085 54 32 C54.45718128 34.84566041 54.69521446 37.33616173 54.75 40.1875 C54.77964844 40.93708984 54.80929687 41.68667969 54.83984375 42.45898438 C54.9104079 44.30541307 54.95748476 46.15271261 55 48 C55.80824219 47.48308594 56.61648438 46.96617188 57.44921875 46.43359375 C58.51785156 45.77488281 59.58648437 45.11617187 60.6875 44.4375 C61.74324219 43.77621094 62.79898438 43.11492187 63.88671875 42.43359375 C67.47330422 40.78205439 68.31492633 40.92955929 72 42 C73.8664194 42.8935826 75.69849927 43.86076757 77.5 44.87890625 C79.06838623 45.76026245 79.06838623 45.76026245 80.66845703 46.65942383 C81.76786621 47.28743896 82.86727539 47.9154541 84 48.5625 C85.12905762 49.20147217 86.25811523 49.84044434 87.42138672 50.4987793 C94.0237566 54.25162008 100.56470521 58.07155151 106.9921875 62.1171875 C111.36676521 64.85555952 115.80485552 67.48605121 120.24267578 70.12036133 C124.89389158 72.89389158 124.89389158 72.89389158 126 74 C126.77159702 82.41335784 126.7991904 90.93415193 126.96293831 99.38000393 C127.0402426 103.29094376 127.14954742 107.19497406 127.33740234 111.10229492 C128.52720193 136.44556954 128.52720193 136.44556954 124.27331543 142.42852783 C119.75190797 146.44759972 114.77736367 148.4178381 109 150 C111.31731664 151.89692777 113.45942931 153.21902476 116.17861938 154.51535034 C125.27182889 159.05680026 125.27182889 159.05680026 127.20819092 164.22418213 C127.6538299 168.18417321 127.70506165 172.03498673 127.5859375 176.0078125 C127.58453398 177.46174351 127.58759155 178.91568497 127.59487915 180.36959839 C127.59599034 183.40579986 127.55251476 186.43697701 127.47509766 189.47216797 C127.37843148 193.35227488 127.37978864 197.22478503 127.41274071 201.1057148 C127.42976474 204.10389365 127.40197343 207.10034742 127.36009598 210.09823227 C127.34410382 211.5278072 127.34020344 212.95757303 127.34891891 214.38721085 C127.37133921 225.4664401 127.37133921 225.4664401 124.08564758 229.14080811 C121.78554548 230.70222733 119.54058859 231.88088653 117 233 C116.0917749 233.54527344 115.1835498 234.09054687 114.24780273 234.65234375 C113.48411377 235.07644531 112.7204248 235.50054687 111.93359375 235.9375 C111.04720215 236.4337085 110.16081055 236.92991699 109.24755859 237.44116211 C108.32023926 237.95557861 107.39291992 238.46999512 106.4375 239 C100.00773094 242.5769615 93.6242445 246.19929639 87.33984375 250.02734375 C86.25840088 250.68025391 85.17695801 251.33316406 84.06274414 252.00585938 C81.96830845 253.27500046 79.8824841 254.55848377 77.80639648 255.85742188 C76.85708252 256.42912109 75.90776855 257.00082031 74.9296875 257.58984375 C74.09679199 258.10409912 73.26389648 258.61835449 72.40576172 259.14819336 C70 260 70 260 67.34545898 259.23120117 C66.57145752 258.82490479 65.79745605 258.4186084 65 258 C64.18917969 257.57460938 63.37835938 257.14921875 62.54296875 256.7109375 C61.76566406 256.27007812 60.98835937 255.82921875 60.1875 255.375 C59.39730469 254.92898438 58.60710937 254.48296875 57.79296875 254.0234375 C57.20128906 253.68570313 56.60960937 253.34796875 56 253 C56.20625 253.99257813 56.4125 254.98515625 56.625 256.0078125 C57.2035995 260.66955575 57.19564332 264.75317618 55 269 C49.2624447 274.46642298 41.57303894 277.69024724 34.54882812 281.18652344 C28.49768676 284.27869997 22.67382929 287.75306575 16.8125 291.1875 C14.6532647 292.43258807 12.49316865 293.67618515 10.33203125 294.91796875 C7.6272062 296.47373988 4.95510359 298.02892859 2.33178711 299.71923828 C0 301 0 301 -2.640625 300.57421875 C-7.5271186 298.28438512 -12.11841232 295.57625721 -16.75 292.8125 C-18.8823273 291.55256389 -21.01515891 290.29348099 -23.1484375 289.03515625 C-24.26057617 288.37789551 -25.37271484 287.72063477 -26.51855469 287.04345703 C-30.09357547 284.93860566 -33.68897629 282.870206 -37.2890625 280.80859375 C-37.88420654 280.4674202 -38.47935059 280.12624664 -39.0925293 279.7747345 C-41.99180578 278.11323178 -44.89278906 276.45485432 -47.79589844 274.80004883 C-48.84036133 274.20087646 -49.88482422 273.6017041 -50.9609375 272.984375 C-51.88696777 272.45553711 -52.81299805 271.92669922 -53.76708984 271.38183594 C-56 270 -56 270 -58 268 C-58.31884766 266.12060547 -58.31884766 266.12060547 -58.4140625 263.8671875 C-58.45273438 263.06152344 -58.49140625 262.25585938 -58.53125 261.42578125 C-58.5621875 260.58402344 -58.593125 259.74226563 -58.625 258.875 C-58.66367188 258.02550781 -58.70234375 257.17601562 -58.7421875 256.30078125 C-58.83656494 254.20088316 -58.91937586 252.10047109 -59 250 C-59.94101563 250.60070312 -60.88203125 251.20140625 -61.8515625 251.8203125 C-63.10871788 252.58961654 -64.36656761 253.35778669 -65.625 254.125 C-66.24246094 254.52332031 -66.85992187 254.92164063 -67.49609375 255.33203125 C-70.61648951 257.20426871 -72.28037453 258.17844668 -75.88867188 257.28369141 C-78.89896497 256.04168567 -81.61953436 254.65759093 -84.4296875 253.015625 C-85.4616626 252.41637207 -86.4936377 251.81711914 -87.55688477 251.19970703 C-89.19935181 250.23460205 -89.19935181 250.23460205 -90.875 249.25 C-92.60364689 248.24278016 -94.33229445 247.23556146 -96.06098938 246.22842407 C-97.84602865 245.18714732 -99.6294899 244.14321318 -101.41259766 243.09863281 C-104.94024955 241.03299332 -108.47531979 238.98030468 -112.01171875 236.9296875 C-114.19544053 235.6616788 -116.37903931 234.39345824 -118.5625 233.125 C-119.59681152 232.52461914 -120.63112305 231.92423828 -121.69677734 231.30566406 C-122.64375488 230.75362305 -123.59073242 230.20158203 -124.56640625 229.6328125 C-125.81852905 228.90408936 -125.81852905 228.90408936 -127.09594727 228.16064453 C-129 227 -129 227 -130 226 C-130.1415084 223.94686238 -130.21251196 221.88884035 -130.25634766 219.83129883 C-130.27095032 219.18730133 -130.28555298 218.54330383 -130.30059814 217.87979126 C-130.42676557 211.92786295 -130.49538338 205.97458243 -130.54844093 200.02159595 C-130.58418909 196.02113622 -130.63743452 192.02268998 -130.73388672 188.02319336 C-130.82683879 184.15739322 -130.87538056 180.29337372 -130.89283371 176.42651939 C-130.90691068 174.95475984 -130.93651397 173.48306155 -130.98213577 172.01194191 C-131.32146937 160.50474696 -131.32146937 160.50474696 -128.0770874 156.81039429 C-125.77056198 155.24797896 -123.55230684 154.10457313 -121 153 C-119.63801059 152.2218687 -118.28289919 151.4314766 -116.9375 150.625 C-115.4834375 149.820625 -115.4834375 149.820625 -114 149 C-115.35206112 148.08023053 -116.70678355 147.16437303 -118.0625 146.25 C-118.81660156 145.73953125 -119.57070312 145.2290625 -120.34765625 144.703125 C-123.49227881 142.68389755 -126.75528692 140.85412176 -130 139 C-130 116.56 -130 94.12 -130 71 C-125.38 68.36 -120.76 65.72 -116 63 C-113.7725 61.659375 -111.545 60.31875 -109.25 58.9375 C-107.31803695 57.78150294 -105.38487467 56.62753568 -103.45166016 55.47363281 C-101.59537662 54.35786629 -99.74440703 53.23325281 -97.89599609 52.10449219 C-95.00558359 50.34338595 -92.10686588 48.59885065 -89.19836426 46.86795044 C-88.03028875 46.16781367 -86.86654238 45.46040007 -85.70739746 44.74557495 C-84.06522846 43.73447547 -82.40586544 42.75146767 -80.74609375 41.76953125 C-79.78372803 41.18792236 -78.8213623 40.60631348 -77.82983398 40.00708008 C-74.15423284 38.69900875 -72.49497112 39.4277988 -69 41 C-66.81614518 42.20513727 -64.77003403 43.5299777 -62.68505859 44.89599609 C-62.12898926 45.26031738 -61.57291992 45.62463867 -61 46 C-61.06050537 45.07566162 -61.12101074 44.15132324 -61.18334961 43.19897461 C-61.26601379 33.3978228 -61.26601379 33.3978228 -57.89892578 29.68017578 C-54.87291891 27.71244454 -51.8200733 26.11749914 -48.5625 24.5625 C-46.80221805 23.6392046 -45.0419774 22.71581843 -43.28440857 21.78736877 C-41.44854481 20.82534969 -39.60226394 19.88599535 -37.75390625 18.94824219 C-32.14337193 16.07251478 -26.7191251 12.87256099 -21.27926636 9.68942261 C-18.54925642 8.09616056 -15.8065829 6.5249113 -13.06640625 4.94921875 C-3.75663833 -0.40734632 -3.75663833 -0.40734632 0 0 Z " fill="#2278BC" transform="translate(234,78)"/>
<path d="M0 0 C0.97614258 0.56960449 1.95228516 1.13920898 2.95800781 1.72607422 C4.62307373 2.68815796 4.62307373 2.68815796 6.32177734 3.66967773 C7.51830984 4.37323521 8.71475949 5.07693361 9.91113281 5.78076172 C11.16305948 6.50812951 12.41550974 7.23459679 13.66845703 7.96020508 C16.24589268 9.45451626 18.82039932 10.95369003 21.39257812 12.45703125 C25.94884932 15.11851606 30.52220089 17.75009783 35.09570312 20.38183594 C38.30945995 22.23168893 41.52081757 24.08564005 44.73144531 25.94091797 C51.20623303 29.68227828 57.68349624 33.41933654 64.16113281 37.15576172 C66.32781032 38.40574293 68.49447699 39.65574293 70.66113281 40.90576172 C72.26988281 41.83388672 72.26988281 41.83388672 73.91113281 42.78076172 C94.49446615 54.65576172 115.07779948 66.53076172 135.66113281 78.40576172 C136.73476074 79.02515625 137.80838867 79.64455078 138.91455078 80.28271484 C141.06984592 81.52616681 143.22511954 82.76965608 145.38037109 84.01318359 C150.38450955 86.90039046 155.38883802 89.78726602 160.39398193 92.67272949 C162.14454522 93.68195276 163.89503692 94.69130008 165.64550781 95.70068359 C167.82505446 96.95743831 170.00473114 98.21396758 172.18457031 99.47021484 C174.17522952 100.61817876 176.16453357 101.76849648 178.15234375 102.92138672 C180.2888809 104.15296412 182.43367199 105.37027159 184.58398438 106.57763672 C186.23479004 107.51349609 186.23479004 107.51349609 187.91894531 108.46826172 C188.92328613 109.03158203 189.92762695 109.59490234 190.96240234 110.17529297 C192.05077393 110.908125 192.05077393 110.908125 193.16113281 111.65576172 C193.16113281 112.31576172 193.16113281 112.97576172 193.16113281 113.65576172 C192.42894531 113.99865234 191.69675781 114.34154297 190.94238281 114.69482422 C182.90365224 118.58021066 175.17585164 122.89030998 167.47363281 127.40576172 C166.44705566 128.00606201 165.42047852 128.6063623 164.36279297 129.22485352 C159.41830606 132.12536573 154.49448933 135.05417709 149.60253906 138.04248047 C148.74426514 138.55907227 147.88599121 139.07566406 147.00170898 139.60791016 C145.40084559 140.57232771 143.80795473 141.55015174 142.22485352 142.54345703 C141.51031006 142.97110352 140.7957666 143.39875 140.05957031 143.83935547 C139.44774902 144.21632568 138.83592773 144.5932959 138.20556641 144.98168945 C134.32955252 146.25965391 131.05267486 145.06425446 127.45483398 143.41577148 C126.54709229 142.89813232 125.63935059 142.38049316 124.70410156 141.84716797 C123.68300293 141.27023193 122.6619043 140.6932959 121.60986328 140.09887695 C120.53365723 139.47827393 119.45745117 138.8576709 118.34863281 138.21826172 C117.22859863 137.58154541 116.10856445 136.9448291 114.95458984 136.28881836 C108.1146593 132.38934065 101.31174877 128.42788874 94.54125977 124.40917969 C85.8118851 119.23706968 76.95293802 114.29185309 68.11083984 109.31591797 C56.53625862 102.80150377 44.96757946 96.27618787 33.43962097 89.67953491 C30.45026279 87.96895844 27.45741542 86.26539976 24.45483398 84.578125 C18.92030331 81.45724545 13.48855537 78.26486116 8.20800781 74.72607422 C-0.51140892 68.51561152 -0.51140892 68.51561152 -10.64355469 67.12841797 C-13.8086939 68.6463929 -16.36267373 70.24114677 -19.12109375 72.37207031 C-21.4461435 74.10957906 -23.9143286 75.50598511 -26.43505859 76.93823242 C-28.56160967 78.14890789 -30.66120676 79.39886081 -32.76074219 80.65576172 C-39.03180358 84.38256392 -45.37555375 87.98259763 -51.71386719 91.59326172 C-60.67756903 96.70170426 -69.63216349 101.82420157 -78.53955078 107.03051758 C-83.32166373 109.81506064 -88.16164602 112.47963221 -93.0246582 115.12011719 C-97.54943907 117.58917867 -102.03928195 120.11899616 -106.52636719 122.65576172 C-107.49807861 123.20466064 -108.46979004 123.75355957 -109.47094727 124.3190918 C-118.06627224 129.18920361 -126.60343197 134.15667225 -135.12084961 139.16162109 C-136.0732251 139.72042969 -137.02560059 140.27923828 -138.00683594 140.85498047 C-138.84496826 141.34828857 -139.68310059 141.84159668 -140.54663086 142.34985352 C-141.30306885 142.78080322 -142.05950684 143.21175293 -142.83886719 143.65576172 C-143.47477783 144.06415283 -144.11068848 144.47254395 -144.76586914 144.89331055 C-147.79189932 146.00628808 -149.74546578 145.46873068 -152.83886719 144.65576172 C-155.70947266 143.2956543 -155.70947266 143.2956543 -158.70605469 141.55029297 C-159.82826416 140.90261963 -160.95047363 140.25494629 -162.10668945 139.58764648 C-163.30917016 138.8813349 -164.5115608 138.17486998 -165.71386719 137.46826172 C-166.95418836 136.74859749 -168.1949987 136.02977571 -169.4362793 135.31176758 C-173.24427238 133.10521955 -177.04218459 130.88169754 -180.83886719 128.65576172 C-182.04111495 127.95187732 -183.24342478 127.24809892 -184.44580078 126.54443359 C-185.31286652 126.036903 -185.31286652 126.036903 -186.19744873 125.51911926 C-187.87539248 124.53719474 -189.55365936 123.55582245 -191.23193359 122.57446289 C-193.310648 121.35704912 -195.38722686 120.13597999 -197.46142578 118.91088867 C-198.39164551 118.36392334 -199.32186523 117.81695801 -200.28027344 117.25341797 C-201.09181885 116.77396729 -201.90336426 116.2945166 -202.73950195 115.80053711 C-204.92350745 114.52946843 -204.92350745 114.52946843 -207.83886719 113.65576172 C-207.83886719 112.99576172 -207.83886719 112.33576172 -207.83886719 111.65576172 C-207.12682129 111.24962646 -206.41477539 110.84349121 -205.68115234 110.42504883 C-186.1656684 99.29095496 -166.69005196 88.08954115 -147.24121094 76.83935547 C-136.92542333 70.87573151 -126.59765275 64.93781903 -116.21386719 59.09326172 C-102.6472345 51.45479632 -89.14013874 43.69440834 -75.82714844 35.62060547 C-71.53555247 33.03710108 -67.1655413 30.63041932 -62.75878906 28.25 C-57.91668526 25.6062761 -53.13833469 22.85180071 -48.35406494 20.10519409 C-46.5444785 19.06781508 -44.73274326 18.03428121 -42.92041016 17.00170898 C-36.95983915 13.60347717 -31.01767997 10.18077696 -25.11230469 6.68701172 C-23.55237793 5.77544312 -23.55237793 5.77544312 -21.9609375 4.84545898 C-20.00704983 3.70314457 -18.06062119 2.54794519 -16.12304688 1.37817383 C-15.2480957 0.87036377 -14.37314453 0.36255371 -13.47167969 -0.16064453 C-12.34076904 -0.83268921 -12.34076904 -0.83268921 -11.18701172 -1.51831055 C-7.03253244 -2.97959183 -3.87073919 -1.83284227 0 0 Z " fill="#00AFEF" transform="translate(237.8388671875,2.34423828125)"/>
<path d="M0 0 C0.20531147 29.32573059 0.36458552 58.65141019 0.45958797 87.97771246 C0.47084433 91.43989543 0.48249323 94.90207697 0.49438477 98.36425781 C0.49792596 99.39814504 0.49792596 99.39814504 0.50153869 100.45291887 C0.54070133 111.61354498 0.61166219 122.77375388 0.69437516 133.93413247 C0.7785385 145.38571395 0.82785485 156.83695682 0.84679645 168.28885639 C0.8585416 174.72144114 0.88618951 181.15307968 0.95157051 187.58536148 C1.01259634 193.63813405 1.03151704 199.68956948 1.01796913 205.74262047 C1.02044801 207.9655032 1.03838998 210.18842998 1.07284927 212.41104698 C1.11758987 215.44528534 1.10689311 218.47446611 1.08229065 221.50881958 C1.12161401 222.83081759 1.12161401 222.83081759 1.16173178 224.17952263 C1.10537153 226.7479281 0.95777689 228.61195434 0 231 C-2.72843873 233.56363164 -5.68998725 235.28411627 -9 237 C-9.9082251 237.54527344 -10.8164502 238.09054687 -11.75219727 238.65234375 C-12.51588623 239.07644531 -13.2795752 239.50054687 -14.06640625 239.9375 C-14.95094482 240.4322583 -15.8354834 240.9270166 -16.74682617 241.43676758 C-18.14058472 242.21056763 -18.14058472 242.21056763 -19.5625 243 C-27.64938433 247.52941241 -35.69162384 252.12429683 -43.6875 256.8125 C-52.38622464 261.90806771 -61.11723323 266.94424918 -69.875 271.9375 C-82.19753715 278.96420381 -94.491386 286.03942621 -106.7734375 293.13671875 C-110.03524007 295.0203505 -113.29861844 296.90122321 -116.5625 298.78125 C-127.01712981 304.80439757 -137.46046337 310.84526005 -147.875 316.9375 C-160.26429844 324.18305043 -172.71410799 331.32408811 -185.20361328 338.39550781 C-186.87714609 339.35573634 -188.54096463 340.33370173 -190.18310547 341.34667969 C-193.70897266 343.51366836 -195.89734158 344.17067336 -200 344 C-200.55999199 335.63853226 -200.98418901 327.28503665 -201.24349213 318.90937614 C-201.36808393 315.01759008 -201.53618432 311.13872571 -201.81054688 307.25439453 C-203.52657597 282.30582692 -203.52657597 282.30582692 -197.77435303 275.28256226 C-192.08378216 270.63656004 -185.6948088 267.78456721 -178.88342285 265.1472168 C-175.27333437 263.71088423 -172.18325098 261.92169093 -168.8828125 259.87890625 C-166.96383454 258.77292918 -165.0445708 257.66744779 -163.125 256.5625 C-161.52567627 255.63993408 -161.52567627 255.63993408 -159.89404297 254.69873047 C-154.45540039 251.56212508 -149.01242331 248.43337121 -143.5625 245.31640625 C-128.65891521 236.77843571 -113.93692902 227.97704026 -99.29296875 219.00366211 C-98.20628906 218.34245361 -97.11960937 217.68124512 -96 217 C-95.32807554 216.57247972 -94.65615108 216.14495943 -93.96386528 215.70448399 C-89.24253266 212.76154266 -84.57726428 210.34946152 -79.43289185 208.22253418 C-70.97692417 204.41483852 -62.17131866 200.40423809 -58.5316391 191.34536743 C-56.08103385 181.3352719 -56.793112 170.6719588 -57.16182852 160.46325493 C-57.29741348 155.93806647 -57.28354717 151.41321999 -57.28640747 146.88635254 C-57.31407831 138.33747682 -57.47360447 129.79650173 -57.68212235 121.25033236 C-57.91319159 111.51193506 -57.99487372 101.77400889 -58.06482863 92.03332996 C-58.21187601 72.01839101 -58.54387033 52.0101272 -59 32 C-58.03777527 31.52187866 -57.07555054 31.04375732 -56.08416748 30.55114746 C-54.80966476 29.91631521 -53.5351912 29.28142443 -52.26074219 28.64648438 C-51.62796356 28.33225525 -50.99518494 28.01802612 -50.3432312 27.6942749 C-45.86531676 25.46133589 -41.52414895 23.09649457 -37.25 20.5 C-35.83787533 19.65778731 -34.42506313 18.81672676 -33.01171875 17.9765625 C-32.23747559 17.51540039 -31.46323242 17.05423828 -30.66552734 16.57910156 C-25.74096626 13.66171183 -20.79551663 10.78051992 -15.84387207 7.90942383 C-14.65870413 7.2212094 -13.47453409 6.53127357 -12.29138184 5.83959961 C-10.62500926 4.86556419 -8.95515207 3.89749767 -7.28515625 2.9296875 C-5.82928101 2.08253174 -5.82928101 2.08253174 -4.34399414 1.21826172 C-2 0 -2 0 0 0 Z " fill="#2E406A" transform="translate(430,116)"/>
<path d="M0 0 C0.495 7.92 0.495 7.92 1 16 C2.876875 14.824375 4.75375 13.64875 6.6875 12.4375 C12.28702952 8.93010239 12.28702952 8.93010239 15.35083008 9.23046875 C18.35658871 10.10358194 20.77466674 11.33865309 23.5 12.87890625 C24.54559082 13.46647705 25.59118164 14.05404785 26.66845703 14.65942383 C27.76786621 15.28743896 28.86727539 15.9154541 30 16.5625 C31.12905762 17.20147217 32.25811523 17.84044434 33.42138672 18.4987793 C40.0237566 22.25162008 46.56470521 26.07155151 52.9921875 30.1171875 C57.36676521 32.85555952 61.80485552 35.48605121 66.24267578 38.12036133 C70.89389158 40.89389158 70.89389158 40.89389158 72 42 C72.77159702 50.41335784 72.7991904 58.93415193 72.96293831 67.38000393 C73.0402426 71.29094376 73.14954742 75.19497406 73.33740234 79.10229492 C74.52720193 104.44556954 74.52720193 104.44556954 70.27331543 110.42852783 C65.75190797 114.44759972 60.77736367 116.4178381 55 118 C57.31731664 119.89692777 59.45942931 121.21902476 62.17861938 122.51535034 C71.27182889 127.05680026 71.27182889 127.05680026 73.20819092 132.22418213 C73.6538299 136.18417321 73.70506165 140.03498673 73.5859375 144.0078125 C73.58453398 145.46174351 73.58759155 146.91568497 73.59487915 148.36959839 C73.59599034 151.40579986 73.55251476 154.43697701 73.47509766 157.47216797 C73.37843148 161.35227488 73.37978864 165.22478503 73.41274071 169.1057148 C73.42976474 172.10389365 73.40197343 175.10034742 73.36009598 178.09823227 C73.34410382 179.5278072 73.34020344 180.95757303 73.34891891 182.38721085 C73.37133921 193.4664401 73.37133921 193.4664401 70.08564758 197.14080811 C67.78554548 198.70222733 65.54058859 199.88088653 63 201 C62.0917749 201.54527344 61.1835498 202.09054687 60.24780273 202.65234375 C59.48411377 203.07644531 58.7204248 203.50054687 57.93359375 203.9375 C57.04720215 204.4337085 56.16081055 204.92991699 55.24755859 205.44116211 C54.32023926 205.95557861 53.39291992 206.46999512 52.4375 207 C46.00773094 210.5769615 39.6242445 214.19929639 33.33984375 218.02734375 C32.25840088 218.68025391 31.17695801 219.33316406 30.06274414 220.00585938 C27.96830845 221.27500046 25.8824841 222.55848377 23.80639648 223.85742188 C22.85708252 224.42912109 21.90776855 225.00082031 20.9296875 225.58984375 C20.09679199 226.10409912 19.26389648 226.61835449 18.40576172 227.14819336 C15.17469296 228.29221598 14.08219806 227.38624798 11 226 C10.12832184 225.63357391 9.25664368 225.26714783 8.35855103 224.88961792 C1.52733925 221.46598471 1.52733925 221.46598471 0.12567139 217.56939697 C-0.15963838 214.56393383 -0.12608322 211.71061298 0.0234375 208.6953125 C0.03758698 207.61619598 0.05173645 206.53707947 0.0663147 205.42526245 C0.12216162 201.98898129 0.24757224 198.55929828 0.375 195.125 C0.4251737 192.79176106 0.47079879 190.45841957 0.51171875 188.125 C0.62178748 182.41442734 0.78895167 176.70768483 1 171 C-16.24063483 180.57073197 -16.24063483 180.57073197 -33.3125 190.4375 C-33.98635742 190.83348389 -34.66021484 191.22946777 -35.35449219 191.63745117 C-38.42879354 193.45064754 -41.47777262 195.29187959 -44.4921875 197.203125 C-45.54664063 197.85796875 -46.60109375 198.5128125 -47.6875 199.1875 C-48.57824219 199.75855469 -49.46898437 200.32960938 -50.38671875 200.91796875 C-53.75849389 202.31405502 -55.46984082 201.82958741 -59 201 C-61.67114258 199.74755859 -61.67114258 199.74755859 -64.39453125 198.1484375 C-65.42143066 197.5510376 -66.44833008 196.9536377 -67.50634766 196.33813477 C-68.59737793 195.69030029 -69.6884082 195.04246582 -70.8125 194.375 C-71.94220215 193.71363037 -73.0719043 193.05226074 -74.23583984 192.37084961 C-77.83296126 190.26240938 -81.41778467 188.13364434 -85 186 C-85.90640228 185.46049713 -85.90640228 185.46049713 -86.83111572 184.91009521 C-94.57079842 180.30112877 -102.29288908 175.66325194 -110 171 C-106.92066082 167.83125533 -103.91815378 165.47980031 -100.125 163.1875 C-99.11695313 162.56230469 -98.10890625 161.93710937 -97.0703125 161.29296875 C-93.35304698 159.72755541 -91.87705475 160.04656254 -88 161 C-85.04321289 162.42700195 -85.04321289 162.42700195 -81.97265625 164.23828125 C-80.28946289 165.22151367 -80.28946289 165.22151367 -78.57226562 166.22460938 C-77.40219104 166.92031615 -76.23227021 167.61628157 -75.0625 168.3125 C-73.89699096 168.99760732 -72.73097896 169.68185977 -71.56445312 170.36523438 C-69.40249907 171.63412651 -67.24280032 172.9068753 -65.08618164 174.18481445 C-61.74022729 176.15278934 -58.37370833 178.08006143 -55 180 C-55.05329468 179.21676361 -55.10658936 178.43352722 -55.16149902 177.6265564 C-55.64565871 170.18586806 -56.00915755 162.75293238 -56.24349213 155.30052757 C-56.36807235 151.46916515 -56.53613171 147.65093423 -56.81054688 143.82714844 C-58.52473202 119.29476031 -58.52473202 119.29476031 -52.79650879 112.31512451 C-47.12092875 107.68442166 -40.73702074 104.84297772 -33.95458984 102.19085693 C-30.10107526 100.63768549 -26.64742137 98.64934892 -23.109375 96.4921875 C-19.88351092 94.65545149 -16.65604924 92.82207 -13.421875 91 C-12.37 90.39929688 -11.318125 89.79859375 -10.234375 89.1796875 C-9.31881836 88.66132324 -8.40326172 88.14295898 -7.45996094 87.60888672 C-4.9559558 85.9711938 -3.03116856 84.18709306 -1 82 C-1.71357666 81.73227783 -2.42715332 81.46455566 -3.16235352 81.1887207 C-6.06292346 79.97364068 -8.6824972 78.55749071 -11.40234375 76.98046875 C-12.44769287 76.37605957 -13.49304199 75.77165039 -14.57006836 75.14892578 C-15.6813208 74.50165527 -16.79257324 73.85438477 -17.9375 73.1875 C-19.09305279 72.51784626 -20.24873466 71.84841521 -21.40454102 71.17919922 C-30.05085972 66.16573275 -38.6593941 61.08822919 -47.23217773 55.94995117 C-48.08239502 55.44310791 -48.9326123 54.93626465 -49.80859375 54.4140625 C-50.54907959 53.9701416 -51.28956543 53.5262207 -52.05249023 53.06884766 C-54.11077888 51.86350772 -54.11077888 51.86350772 -57 51 C-57.35552446 48.1558043 -57.60883066 45.35584705 -57.8125 42.5 C-57.97588867 41.31277344 -57.97588867 41.31277344 -58.14257812 40.1015625 C-58.29258469 37.28605467 -58.14089903 35.59491632 -57 33 C-53.58184655 30.08684722 -49.82384645 28.02567415 -45.85787964 25.97259521 C-42.89517911 24.42162911 -40.02276226 22.71684457 -37.1328125 21.03515625 C-35.39104112 20.0459447 -33.64925909 19.05674849 -31.90591431 18.0703125 C-22.86854066 12.9560978 -13.85040336 7.81841203 -4.99853516 2.38696289 C-1.09454059 0 -1.09454059 0 0 0 Z " fill="#2E406A" transform="translate(288,110)"/>
<path d="M0 0 C2.3581543 1.04711914 2.3581543 1.04711914 4.82421875 2.53515625 C5.75854736 3.09041992 6.69287598 3.64568359 7.65551758 4.21777344 C8.65607178 4.8265332 9.65662598 5.43529297 10.6875 6.0625 C12.83017751 7.34076891 14.97342823 8.61807737 17.1171875 9.89453125 C18.23577148 10.56436035 19.35435547 11.23418945 20.50683594 11.92431641 C26.39952669 15.43912726 32.3610466 18.83605062 38.3125 22.25 C40.49672081 23.50411686 42.6803624 24.75924331 44.86328125 26.015625 C45.78407471 26.54446289 46.70486816 27.07330078 47.65356445 27.61816406 C49.47062767 28.68824811 51.24541946 29.83027964 53 31 C51.7220314 34.8339058 50.52549332 35.10636815 47.03125 37.00390625 C45.99315186 37.57488037 44.95505371 38.14585449 43.88549805 38.73413086 C42.76828369 39.33749268 41.65106934 39.94085449 40.5 40.5625 C38.20363929 41.82408793 35.90806836 43.08711449 33.61328125 44.3515625 C31.91872803 45.28210449 31.91872803 45.28210449 30.18994141 46.23144531 C25.28754639 48.94941175 20.43823211 51.7549909 15.65625 54.67993164 C12.57383251 56.55606873 9.67745823 58.13499352 6.33203125 59.53515625 C2.82275112 61.07792301 0.55688581 62.13050224 -2 65 C-3.68407298 70.84562296 -3.33077601 76.98878214 -3 83 C-2.30261719 83.09023437 -1.60523438 83.18046875 -0.88671875 83.2734375 C2.64753991 84.16298028 5.09398272 85.68837839 8.1875 87.625 C16.56719385 92.79517237 25.09577132 97.69413794 33.63549805 102.59423828 C40.13266078 106.32810429 46.59136177 110.11600406 53 114 C51.01881893 118.6625337 47.70761534 120.12284253 43.375 122.375 C41.74857812 123.24866024 40.1236589 124.12512179 38.5 125.00390625 C37.62085938 125.47844238 36.74171875 125.95297852 35.8359375 126.44189453 C30.62740203 129.30353996 25.50409867 132.31150726 20.375 135.3125 C19.36872559 135.8988623 18.36245117 136.48522461 17.32568359 137.08935547 C16.35969238 137.65412598 15.39370117 138.21889648 14.3984375 138.80078125 C13.47514648 139.33912598 12.55185547 139.8774707 11.60058594 140.43212891 C8.5926147 142.24560912 5.69689732 144.1986284 2.83837891 146.23901367 C0.19987866 147.33120561 -1.29482749 146.82768876 -4 146 C-6.51342773 144.80761719 -6.51342773 144.80761719 -9.18359375 143.296875 C-10.18358398 142.73460205 -11.18357422 142.1723291 -12.21386719 141.59301758 C-13.27766602 140.98482178 -14.34146484 140.37662598 -15.4375 139.75 C-16.53610352 139.12826904 -17.63470703 138.50653809 -18.76660156 137.8659668 C-28.89278996 132.11311142 -38.94463566 126.23065296 -48.92773438 120.23291016 C-50.63881299 119.21489095 -52.37149281 118.23327349 -54.109375 117.26171875 C-54.73328125 116.84535156 -55.3571875 116.42898437 -56 116 C-56 115.34 -56 114.68 -56 114 C-55.19369141 113.54149658 -54.38738281 113.08299316 -53.55664062 112.6105957 C-50.5291808 110.88797802 -47.50259414 109.16384507 -44.4765625 107.4387207 C-43.1735171 106.69626166 -41.87013914 105.95438593 -40.56640625 105.21313477 C-38.67878066 104.13976485 -36.79216913 103.06464641 -34.90625 101.98828125 C-34.29773193 101.64113068 -33.68921387 101.2939801 -33.06225586 100.93630981 C-29.73001866 99.02515031 -26.45285844 97.05295913 -23.21875 94.98046875 C-20 93 -20 93 -18 93 C-18 86.4 -18 79.8 -18 73 C-44.2765144 87.01210449 -44.2765144 87.01210449 -69.49121094 102.74145508 C-72 104 -72 104 -74.49291992 103.85424805 C-77.23730495 102.91914207 -79.58994208 101.76213414 -82.11328125 100.33203125 C-83.10303955 99.77483398 -84.09279785 99.21763672 -85.11254883 98.64355469 C-86.16853271 98.03930664 -87.2245166 97.43505859 -88.3125 96.8125 C-89.40522217 96.19407227 -90.49794434 95.57564453 -91.6237793 94.93847656 C-100.58698404 89.84967278 -109.49785132 84.66997351 -118.38208008 79.44458008 C-119.32462646 78.8905249 -120.26717285 78.33646973 -121.23828125 77.765625 C-122.06368408 77.27868164 -122.88908691 76.79173828 -123.73950195 76.29003906 C-125.79585438 75.11650345 -127.87093036 74.03445976 -130 73 C-130 72.34 -130 71.68 -130 71 C-129.16339844 70.52691406 -128.32679688 70.05382812 -127.46484375 69.56640625 C-121.34784168 66.09553306 -115.26726959 62.57971381 -109.25 58.9375 C-107.31803657 57.7815065 -105.3848734 56.62753493 -103.45166016 55.47363281 C-101.59537662 54.35786629 -99.74440703 53.23325281 -97.89599609 52.10449219 C-95.00558359 50.34338595 -92.10686588 48.59885065 -89.19836426 46.86795044 C-88.03028875 46.16781367 -86.86654238 45.46040007 -85.70739746 44.74557495 C-84.06522846 43.73447547 -82.40586544 42.75146767 -80.74609375 41.76953125 C-79.78372803 41.18792236 -78.8213623 40.60631348 -77.82983398 40.00708008 C-74.15423284 38.69900875 -72.49497112 39.4277988 -69 41 C-66.81614518 42.20513727 -64.77003403 43.5299777 -62.68505859 44.89599609 C-62.12898926 45.26031738 -61.57291992 45.62463867 -61 46 C-61.06050537 45.07566162 -61.12101074 44.15132324 -61.18334961 43.19897461 C-61.26601379 33.3978228 -61.26601379 33.3978228 -57.89892578 29.68017578 C-54.87291891 27.71244454 -51.8200733 26.11749914 -48.5625 24.5625 C-46.80221805 23.6392046 -45.0419774 22.71581843 -43.28440857 21.78736877 C-41.44854481 20.82534969 -39.60226394 19.88599535 -37.75390625 18.94824219 C-32.14337193 16.07251478 -26.7191251 12.87256099 -21.27926636 9.68942261 C-18.54925642 8.09616056 -15.8065829 6.5249113 -13.06640625 4.94921875 C-3.75663833 -0.40734632 -3.75663833 -0.40734632 0 0 Z " fill="#00AEEE" transform="translate(234,78)"/>
<path d="M0 0 C4.30288269 1.43429423 7.23755156 2.53950968 10.9921875 4.765625 C12.40431519 5.59658691 12.40431519 5.59658691 13.8449707 6.44433594 C15.34483521 7.33813965 15.34483521 7.33813965 16.875 8.25 C19.01159962 9.51061859 21.14832218 10.77102884 23.28515625 12.03125 C24.93475342 13.00771484 24.93475342 13.00771484 26.61767578 14.00390625 C33.19878628 17.88777801 39.81252171 21.7159092 46.41943359 25.55566406 C47.37027832 26.10963867 48.32112305 26.66361328 49.30078125 27.234375 C50.13778564 27.72131836 50.97479004 28.20826172 51.8371582 28.70996094 C53.58975957 29.75530981 55.30205345 30.86803563 57 32 C57.32279968 34.67019653 57.32279968 34.67019653 57.2487793 38.10205078 C57.22853195 39.38322784 57.20828461 40.66440491 57.18742371 41.98440552 C57.15001099 43.38804981 57.11226818 44.79168533 57.07421875 46.1953125 C57.046191 47.62732463 57.01950002 49.0593635 56.99409485 50.49142456 C56.9235811 54.26308881 56.83487332 58.03411582 56.74243164 61.80529785 C56.65132734 65.65253106 56.57735099 69.50008885 56.50195312 73.34765625 C56.35144213 80.89886113 56.18171804 88.44947484 56 96 C56.97582031 95.4225 57.95164063 94.845 58.95703125 94.25 C60.24198889 93.49965977 61.52715612 92.7496784 62.8125 92 C63.45509766 91.6184375 64.09769531 91.236875 64.75976562 90.84375 C69.66015625 88 69.66015625 88 73 88 C75.06843124 106.05532403 75.06843124 106.05532403 71.77246094 110.74755859 C68.30732862 113.76085846 64.26316263 115.35950529 60 117 C59.01 117.66 58.02 118.32 57 119 C56.52089939 121.86748316 56.52089939 121.86748316 56.56762695 125.28564453 C56.5574353 125.92967224 56.54724365 126.57369995 56.53674316 127.23724365 C56.50651239 129.36918725 56.49733249 131.50068236 56.48828125 133.6328125 C56.47144191 135.10970566 56.45329268 136.58658442 56.43388367 138.06344604 C56.38629601 141.95305889 56.35654375 145.84261339 56.33044434 149.73242188 C56.30068271 153.70063811 56.25413743 157.66865308 56.20898438 161.63671875 C56.12285173 169.4243795 56.05555121 177.21205472 56 185 C53.75439601 183.88418428 51.50955986 182.76686811 49.26513672 181.64868164 C48.63294724 181.33474709 48.00075775 181.02081253 47.34941101 180.69736481 C42.82857955 178.4430272 38.44256186 176.05531204 34.125 173.4375 C32.71137918 172.59301022 31.2972852 171.74931216 29.8828125 170.90625 C29.12129883 170.45121094 28.35978516 169.99617187 27.57519531 169.52734375 C21.33078529 165.82379529 15.03932905 162.19934032 8.75830078 158.55834961 C7.76556152 157.98093018 6.77282227 157.40351074 5.75 156.80859375 C4.85796875 156.29095459 3.9659375 155.77331543 3.046875 155.23999023 C1 154 1 154 0 153 C-0.1415084 150.94686238 -0.21251196 148.88884035 -0.25634766 146.83129883 C-0.27095032 146.18730133 -0.28555298 145.54330383 -0.30059814 144.87979126 C-0.42676557 138.92786295 -0.49538338 132.97458243 -0.54844093 127.02159595 C-0.58418909 123.02113622 -0.63743452 119.02268998 -0.73388672 115.02319336 C-0.82683879 111.15739322 -0.87538056 107.29337372 -0.89283371 103.42651939 C-0.90691068 101.95475984 -0.93651397 100.48306155 -0.98213577 99.01194191 C-1.32146937 87.50474696 -1.32146937 87.50474696 1.9229126 83.81039429 C4.22943802 82.24797896 6.44769316 81.10457313 9 80 C10.36198941 79.2218687 11.71710081 78.4314766 13.0625 77.625 C14.031875 77.08875 15.00125 76.5525 16 76 C14.64793888 75.08023053 13.29321645 74.16437303 11.9375 73.25 C11.18339844 72.73953125 10.42929688 72.2290625 9.65234375 71.703125 C6.50772119 69.68389755 3.24471308 67.85412176 0 66 C0 44.22 0 22.44 0 0 Z " fill="#2279BD" transform="translate(104,151)"/>
<path d="M0 0 C2.12011729 0.74624293 3.95303825 1.64292751 5.90649414 2.75317383 C6.6109668 3.15149414 7.31543945 3.54981445 8.04125977 3.96020508 C8.76635742 4.37657227 9.49145508 4.79293945 10.23852539 5.22192383 C10.97522461 5.63829102 11.71192383 6.0546582 12.47094727 6.48364258 C17.89852339 9.56942183 17.89852339 9.56942183 19.05102539 10.72192383 C19.19246872 12.7444202 19.263523 14.77186613 19.30737305 16.79882812 C19.33634674 18.10075607 19.36532043 19.40268402 19.39517212 20.74406433 C19.48478072 25.93214873 19.55251338 31.12053198 19.59946632 36.30917645 C19.63521288 40.24911742 19.68845355 44.18701367 19.78491211 48.12597656 C19.87787392 51.93342571 19.92640733 55.73906673 19.9438591 59.54758644 C19.95793456 60.99702092 19.98753456 62.4463933 20.03316116 63.89517784 C20.37208058 75.21275974 20.37208058 75.21275974 17.16340637 78.87832642 C14.85435881 80.44536463 12.60732556 81.61286441 10.05102539 82.72192383 C9.14280029 83.26719727 8.2345752 83.8124707 7.29882812 84.37426758 C6.53513916 84.79836914 5.7714502 85.2224707 4.98461914 85.65942383 C4.09822754 86.15563232 3.21183594 86.65184082 2.29858398 87.16308594 C1.37126465 87.67750244 0.44394531 88.19191895 -0.51147461 88.72192383 C-6.94124367 92.29888532 -13.32473011 95.92122022 -19.60913086 99.74926758 C-20.69057373 100.40217773 -21.7720166 101.05508789 -22.88623047 101.7277832 C-24.98066616 102.99692429 -27.06649051 104.2804076 -29.14257812 105.5793457 C-30.56654907 106.43689453 -30.56654907 106.43689453 -32.01928711 107.31176758 C-32.85218262 107.82602295 -33.68507813 108.34027832 -34.54321289 108.87011719 C-37.77428165 110.01413981 -38.86677655 109.1081718 -41.94897461 107.72192383 C-42.82065277 107.35549774 -43.69233093 106.98907166 -44.59042358 106.61154175 C-51.42163536 103.18790854 -51.42163536 103.18790854 -52.82330322 99.2913208 C-53.10861299 96.28585766 -53.07505783 93.4325368 -52.92553711 90.41723633 C-52.91138763 89.33811981 -52.89723816 88.2590033 -52.88265991 87.14718628 C-52.82681299 83.71090512 -52.70140237 80.28122211 -52.57397461 76.84692383 C-52.52380091 74.51368489 -52.47817582 72.1803434 -52.43725586 69.84692383 C-52.32718713 64.13635116 -52.16002294 58.42960866 -51.94897461 52.72192383 C-69.18960944 62.2926558 -69.18960944 62.2926558 -86.26147461 72.15942383 C-86.93533203 72.55540771 -87.60918945 72.9513916 -88.3034668 73.359375 C-91.37776815 75.17257136 -94.42674723 77.01380342 -97.44116211 78.92504883 C-98.49561523 79.57989258 -99.55006836 80.23473633 -100.63647461 80.90942383 C-101.5272168 81.48047852 -102.41795898 82.0515332 -103.33569336 82.63989258 C-106.7074685 84.03597885 -108.41881543 83.55151124 -111.94897461 82.72192383 C-114.62011719 81.46948242 -114.62011719 81.46948242 -117.34350586 79.87036133 C-118.88385498 78.97426147 -118.88385498 78.97426147 -120.45532227 78.06005859 C-121.54635254 77.41222412 -122.63738281 76.76438965 -123.76147461 76.09692383 C-124.89117676 75.4355542 -126.02087891 74.77418457 -127.18481445 74.09277344 C-130.78193586 71.9843332 -134.36675928 69.85556817 -137.94897461 67.72192383 C-138.85537689 67.18242096 -138.85537689 67.18242096 -139.78009033 66.63201904 C-147.51977303 62.0230526 -155.24186369 57.38517576 -162.94897461 52.72192383 C-159.86963543 49.55317916 -156.86712838 47.20172414 -153.07397461 44.90942383 C-152.06592773 44.28422852 -151.05788086 43.6590332 -150.01928711 43.01489258 C-146.30140558 41.44921982 -144.82697487 41.76891135 -140.94897461 42.72192383 C-137.97631836 44.14892578 -137.97631836 44.14892578 -134.88647461 45.96020508 C-133.19651367 46.9434375 -133.19651367 46.9434375 -131.47241211 47.9465332 C-130.29790371 48.64244741 -129.12342477 49.33841133 -127.94897461 50.03442383 C-126.77496713 50.71947761 -125.60049146 51.40372969 -124.42553711 52.0871582 C-115.43666306 57.34780932 -115.43666306 57.34780932 -111.88256836 60.07421875 C-109.1127356 62.06038426 -109.1127356 62.06038426 -106.37548828 61.14257812 C-105.57473877 60.67376221 -104.77398926 60.20494629 -103.94897461 59.72192383 C-103.17078369 59.30144775 -102.39259277 58.88097168 -101.59082031 58.44775391 C-100.77701904 57.96717529 -99.96321777 57.48659668 -99.12475586 56.99145508 C-98.19034668 56.44247559 -97.2559375 55.89349609 -96.29321289 55.32788086 C-94.79250244 54.44011963 -94.79250244 54.44011963 -93.26147461 53.53442383 C-91.11981542 52.27745685 -88.97787785 51.0209641 -86.83569336 49.76489258 C-85.71727051 49.1079541 -84.59884766 48.45101562 -83.4465332 47.77416992 C-78.07624809 44.62150756 -72.69874157 41.48142193 -67.31210327 38.35678101 C-65.59057661 37.35656964 -63.87193198 36.35140321 -62.15332031 35.34619141 C-61.10877686 34.74057373 -60.0642334 34.13495605 -58.98803711 33.51098633 C-58.06200684 32.9716748 -57.13597656 32.43236328 -56.18188477 31.87670898 C-53.94897461 30.72192383 -53.94897461 30.72192383 -51.94897461 30.72192383 C-51.94897461 25.11192383 -51.94897461 19.50192383 -51.94897461 13.72192383 C-48.58797269 15.0663246 -46.32776823 16.02870252 -43.44897461 17.90942383 C-40.27984991 19.92189528 -40.27984991 19.92189528 -37.75366211 19.61645508 C-33.72423466 18.33130342 -30.23645339 16.31493579 -26.57397461 14.22192383 C-25.78684082 13.78066162 -24.99970703 13.33939941 -24.1887207 12.88476562 C-20.26843042 10.67225821 -16.39526579 8.40227968 -12.57397461 6.02270508 C-11.55956299 5.39428711 -11.55956299 5.39428711 -10.5246582 4.75317383 C-9.24931591 3.95636423 -7.98099861 3.14816911 -6.72094727 2.32739258 C-2.4492955 -0.34946105 -2.4492955 -0.34946105 0 0 Z " fill="#00ADED" transform="translate(340.948974609375,228.278076171875)"/>
<path d="M0 0 C0.20884949 8.50142149 0.36859675 17.00176595 0.46630955 25.50512123 C0.51321686 29.45404492 0.57679045 33.40120983 0.67895508 37.34912109 C0.77699952 41.16182994 0.83060624 44.9728517 0.85389519 48.78672409 C0.87048204 50.23898258 0.90287767 51.69115203 0.95157051 53.14268875 C1.31703166 64.49209836 1.31703166 64.49209836 -1.88539124 68.15863037 C-4.19522293 69.72615045 -6.44215607 70.89225203 -9 72 C-9.9082251 72.54527344 -10.8164502 73.09054687 -11.75219727 73.65234375 C-12.89773071 74.28849609 -12.89773071 74.28849609 -14.06640625 74.9375 C-14.95312012 75.43354736 -15.83983398 75.92959473 -16.75341797 76.44067383 C-17.68041504 76.95525146 -18.60741211 77.4698291 -19.5625 78 C-29.29336168 83.44386671 -38.94026668 89.01855943 -48.54516602 94.68164062 C-49.50737061 95.24689453 -50.4695752 95.81214844 -51.4609375 96.39453125 C-52.74170166 97.15020386 -52.74170166 97.15020386 -54.04833984 97.92114258 C-56 99 -56 99 -57 99 C-57.11586907 90.46383927 -57.20470158 81.92800724 -57.25906086 73.39125443 C-57.28515132 69.42722033 -57.32053763 65.46372437 -57.37719727 61.5 C-57.43153926 57.6744534 -57.46142469 53.84942421 -57.47438622 50.02352142 C-57.48362241 48.56421512 -57.50165922 47.10493704 -57.52865028 45.64585114 C-57.56497427 43.60084441 -57.56994463 41.55797292 -57.56762695 39.51269531 C-57.57873001 38.34909485 -57.58983307 37.18549438 -57.60127258 35.9866333 C-57 33 -57 33 -54.6081543 30.68203735 C-52.20812353 29.13422195 -49.82238483 27.64143585 -47.32421875 26.2578125 C-46.42485596 25.75548096 -45.52549316 25.25314941 -44.59887695 24.7355957 C-43.63812256 24.20409912 -42.67736816 23.67260254 -41.6875 23.125 C-31.96409325 17.69347691 -22.32140138 12.13800159 -12.71948242 6.49462891 C-11.76662354 5.93565918 -10.81376465 5.37668945 -9.83203125 4.80078125 C-8.99389893 4.30747314 -8.1557666 3.81416504 -7.29223633 3.3059082 C-1.48943728 0 -1.48943728 0 0 0 Z " fill="#2E406A" transform="translate(360,239)"/>
<path d="M0 0 C3.3779741 1.32619175 6.51778979 2.75564953 9.67578125 4.546875 C10.57506348 5.05565186 11.4743457 5.56442871 12.40087891 6.08862305 C13.84213135 6.91100464 13.84213135 6.91100464 15.3125 7.75 C16.31200684 8.3169458 17.31151367 8.8838916 18.34130859 9.46801758 C27.00655362 14.39773195 35.61551148 19.42346239 44.19262695 24.50488281 C45.14226318 25.06401367 46.09189941 25.62314453 47.0703125 26.19921875 C47.90320801 26.69252686 48.73610352 27.18583496 49.59423828 27.6940918 C52.36521135 29.2587459 52.36521135 29.2587459 57 31 C56.67 53.11 56.34 75.22 56 98 C40.00363464 90.00181732 40.00363464 90.00181732 34.125 86.4375 C32.71137918 85.59301022 31.2972852 84.74931216 29.8828125 83.90625 C29.12129883 83.45121094 28.35978516 82.99617188 27.57519531 82.52734375 C21.33078529 78.82379529 15.03932905 75.19934032 8.75830078 71.55834961 C7.76556152 70.98093018 6.77282227 70.40351074 5.75 69.80859375 C4.85796875 69.29095459 3.9659375 68.77331543 3.046875 68.23999023 C1 67 1 67 0 66 C-0.09413687 63.94443339 -0.11742998 61.88559819 -0.11352539 59.82788086 C-0.11367142 59.18399918 -0.11381744 58.54011749 -0.1139679 57.87672424 C-0.11326885 55.73939697 -0.10547691 53.60215587 -0.09765625 51.46484375 C-0.09579204 49.98653715 -0.09436815 48.50822993 -0.09336853 47.02992249 C-0.08954359 43.13201198 -0.07971352 39.23413851 -0.06866455 35.33624268 C-0.05844992 31.36153667 -0.0538708 27.38682471 -0.04882812 23.41210938 C-0.03809122 15.608056 -0.02101509 7.80403318 0 0 Z " fill="#2279BD" transform="translate(104,238)"/>
<path d="M0 0 C0.55999199 8.36146774 0.98418901 16.71496335 1.24349213 25.09062386 C1.36808393 28.98240992 1.53618432 32.86127429 1.81054688 36.74560547 C3.52510801 61.67597481 3.52510801 61.67597481 -2.20550537 68.70535278 C-7.87769703 73.34698728 -14.26120771 76.17427268 -21.05187988 78.81396484 C-24.89774928 80.36116649 -28.31172136 82.35818484 -31.8203125 84.54296875 C-33.92156465 85.75834922 -36.0231098 86.97322331 -38.125 88.1875 C-39.20652344 88.81462891 -40.28804687 89.44175781 -41.40234375 90.08789062 C-42.97048828 90.9937793 -42.97048828 90.9937793 -44.5703125 91.91796875 C-45.47539551 92.44156982 -46.38047852 92.9651709 -47.31298828 93.50463867 C-50.16780755 95.09338736 -53.07422286 96.54691646 -56 98 C-56.20884949 89.49857851 -56.36859675 80.99823405 -56.46630955 72.49487877 C-56.51321686 68.54595508 -56.57679045 64.59879017 -56.67895508 60.65087891 C-56.77699952 56.83817006 -56.83060624 53.0271483 -56.85389519 49.21327591 C-56.87048204 47.76101742 -56.90287767 46.30884797 -56.95157051 44.85731125 C-57.31671438 33.5177546 -57.31671438 33.5177546 -54.14385986 29.86045837 C-51.82707547 28.28763079 -49.5616521 27.12173679 -47 26 C-45.46206787 25.06764526 -45.46206787 25.06764526 -43.89306641 24.11645508 C-42.51127197 23.32597778 -42.51127197 23.32597778 -41.1015625 22.51953125 C-40.05355469 21.91761963 -39.00554687 21.31570801 -37.92578125 20.69555664 C-36.83652344 20.07414795 -35.74726563 19.45273926 -34.625 18.8125 C-32.32535685 17.49507787 -30.02587915 16.17736689 -27.7265625 14.859375 C-26.59508789 14.21162109 -25.46361328 13.56386719 -24.29785156 12.89648438 C-21.23955498 11.13776007 -18.19153473 9.36298825 -15.1484375 7.578125 C-14.2723584 7.06531982 -13.3962793 6.55251465 -12.49365234 6.02416992 C-10.86448104 5.06922097 -9.23711673 4.11118069 -7.61181641 3.1496582 C-2.22260297 0 -2.22260297 0 0 0 Z " fill="#2E406B" transform="translate(289,281)"/>
<path d="M0 0 C1.8664194 0.8935826 3.69849927 1.86076757 5.5 2.87890625 C7.06838623 3.76026245 7.06838623 3.76026245 8.66845703 4.65942383 C9.76786621 5.28743896 10.86727539 5.9154541 12 6.5625 C13.12905762 7.20147217 14.25811523 7.84044434 15.42138672 8.4987793 C22.02221359 12.25074302 28.56086661 16.07093725 34.98828125 20.11328125 C38.73329271 22.45937793 42.52018267 24.73143701 46.3125 27 C46.97846191 27.39872314 47.64442383 27.79744629 48.33056641 28.20825195 C49.8866593 29.13947823 51.44327066 30.06983807 53 31 C50.5849251 33.67813752 47.98947088 35.3043511 44.86328125 37.08203125 C43.82187988 37.67806152 42.78047852 38.2740918 41.70751953 38.88818359 C40.58716309 39.52320801 39.46680664 40.15823242 38.3125 40.8125 C35.96120803 42.15314383 33.61154831 43.49663879 31.26171875 44.83984375 C30.66234497 45.18178772 30.06297119 45.52373169 29.44543457 45.8760376 C25.30526654 48.24139242 21.18871203 50.64334106 17.08203125 53.06640625 C15.99559326 53.70666748 14.90915527 54.34692871 13.78979492 55.0065918 C11.71360658 56.2323165 9.63947371 57.46153098 7.56762695 58.69458008 C6.63007568 59.24654053 5.69252441 59.79850098 4.7265625 60.3671875 C3.49800537 61.09591064 3.49800537 61.09591064 2.24462891 61.83935547 C-1.57901202 63.81646978 -1.57901202 63.81646978 -4 64 C-6.61181641 62.8828125 -6.61181641 62.8828125 -9.6015625 61.125 C-10.72014648 60.47595703 -11.83873047 59.82691406 -12.99121094 59.15820312 C-14.20259147 58.43899997 -15.4138518 57.71959433 -16.625 57 C-17.86680937 56.27418539 -19.10933182 55.54958953 -20.35253906 54.82617188 C-22.93351755 53.32229856 -25.51059094 51.81203161 -28.08496094 50.296875 C-31.92210707 48.0412763 -35.77465868 45.81318398 -39.6328125 43.59375 C-40.53907883 43.07240479 -40.53907883 43.07240479 -41.46365356 42.54052734 C-42.64814559 41.85929194 -43.83268437 41.1781378 -45.01727295 40.49707031 C-49.3486526 38.00464656 -53.6737664 35.5013417 -58 33 C-58 32.34 -58 31.68 -58 31 C-57.28046143 30.5875 -56.56092285 30.175 -55.81958008 29.75 C-31.0700047 15.65569573 -31.0700047 15.65569573 -7.25 0.0625 C-4.30903344 -1.32628976 -3.11108062 -0.8589752 0 0 Z " fill="#00AEEE" transform="translate(306,120)"/>
<path d="M0 0 C2.23828125 1.296875 2.23828125 1.296875 4.3125 2.75 C4.98925781 3.21921875 5.66601562 3.6884375 6.36328125 4.171875 C7.85389696 5.20536856 9.34443545 6.23897358 10.8347168 7.27294922 C17.41356288 11.75418129 24.27150358 15.69091479 31.1875 19.625 C33.47416029 20.92709491 35.75891843 22.2323794 38.04296875 23.5390625 C39.04352295 24.10834473 40.04407715 24.67762695 41.07495117 25.26416016 C44.13079518 27.07761904 47.06064626 29.00474604 50 31 C47.5849251 33.67813752 44.98947088 35.3043511 41.86328125 37.08203125 C40.82196045 37.67822266 39.78063965 38.27441406 38.70776367 38.88867188 C37.02710815 39.8409668 37.02710815 39.8409668 35.3125 40.8125 C32.95983254 42.15040925 30.60858883 43.49080241 28.2578125 44.83203125 C27.65823227 45.17356232 27.05865204 45.51509338 26.44090271 45.86697388 C22.29791988 48.23473946 18.20078114 50.66785639 14.1171875 53.13671875 C12.4942981 54.11064575 12.4942981 54.11064575 10.83862305 55.10424805 C8.77074155 56.34830939 6.70942059 57.60335505 4.65551758 58.87036133 C3.72118896 59.42876709 2.78686035 59.98717285 1.82421875 60.5625 C1.01041748 61.05878906 0.19661621 61.55507812 -0.6418457 62.06640625 C-3.6199049 63.24542047 -4.97510732 62.9839553 -8 62 C-10.48168945 60.82348633 -10.48168945 60.82348633 -13.11328125 59.33203125 C-14.10303955 58.77483398 -15.09279785 58.21763672 -16.11254883 57.64355469 C-17.16853271 57.03930664 -18.2245166 56.43505859 -19.3125 55.8125 C-20.40522217 55.19407227 -21.49794434 54.57564453 -22.6237793 53.93847656 C-31.58698404 48.84967278 -40.49785132 43.66997351 -49.38208008 38.44458008 C-50.79589966 37.61349731 -50.79589966 37.61349731 -52.23828125 36.765625 C-53.06368408 36.27868164 -53.88908691 35.79173828 -54.73950195 35.29003906 C-56.79585438 34.11650345 -58.87093036 33.03445976 -61 32 C-61 31.34 -61 30.68 -61 30 C-60.16339844 29.52691406 -59.32679687 29.05382812 -58.46484375 28.56640625 C-52.34784168 25.09553306 -46.26726959 21.57971381 -40.25 17.9375 C-38.31803657 16.7815065 -36.3848734 15.62753493 -34.45166016 14.47363281 C-32.59537662 13.35786629 -30.74440703 12.23325281 -28.89599609 11.10449219 C-26.00558359 9.34338595 -23.10686588 7.59885065 -20.19836426 5.86795044 C-19.03028875 5.16781367 -17.86654238 4.46040007 -16.70739746 3.74557495 C-15.06522846 2.73447547 -13.40586544 1.75146767 -11.74609375 0.76953125 C-10.78372803 0.18792236 -9.8213623 -0.39368652 -8.82983398 -0.99291992 C-5.1552027 -2.30064609 -3.49256446 -1.5751803 0 0 Z " fill="#00AEEE" transform="translate(165,119)"/>
<path d="M0 0 C0.39565726 8.17079477 0.69673896 16.33753713 0.88080692 24.51556969 C0.9692101 28.31445975 1.08876385 32.10676143 1.2824707 35.90185547 C2.49254643 60.25535016 2.49254643 60.25535016 -1.50692749 66.26391602 C-5.37170792 69.82783551 -9.82761664 71.58590051 -14.76742554 73.20904541 C-18.14552366 74.40583515 -20.94186239 76.17118223 -23.99609375 78.046875 C-27.23278644 79.90918827 -30.47082722 81.76914077 -33.70898438 83.62890625 C-34.77310547 84.24121094 -35.83722656 84.85351562 -36.93359375 85.484375 C-37.95179199 86.07025391 -38.96999023 86.65613281 -40.01904297 87.25976562 C-43.73514738 89.42916712 -47.40321836 91.67273608 -51.05883789 93.94238281 C-53 95 -53 95 -55 95 C-55.56007509 86.76894935 -55.98422017 78.54600152 -56.24349213 70.30052757 C-56.36807235 66.46916515 -56.53613171 62.65093423 -56.81054688 58.82714844 C-58.52476934 34.29389787 -58.52476934 34.29389787 -52.79852295 27.31814575 C-47.12358295 22.69133488 -40.73865973 19.8561752 -33.96105957 17.20056152 C-30.06930886 15.6226513 -26.59931756 13.59189958 -23.0390625 11.38671875 C-20.90138395 10.15305254 -18.76338191 8.91994664 -16.625 7.6875 C-15.50996094 7.04361328 -14.39492188 6.39972656 -13.24609375 5.73632812 C-3.2998944 0 -3.2998944 0 0 0 Z " fill="#2E406A" transform="translate(288,195)"/>
<path d="M0 0 C0.81218994 0.433125 1.62437988 0.86625 2.46118164 1.3125 C3.20384277 1.69744629 3.94650391 2.08239258 4.71166992 2.47900391 C5.47721191 2.91132324 6.24275391 3.34364258 7.03149414 3.7890625 C7.91571045 4.28768799 8.79992676 4.78631348 9.7109375 5.30004883 C10.65976807 5.84040771 11.60859863 6.3807666 12.58618164 6.9375 C13.57432861 7.49783936 14.56247559 8.05817871 15.58056641 8.63549805 C27.97144604 15.69495888 40.21865567 22.99979332 52.46118164 30.3125 C50.48000057 34.9750337 47.16879698 36.43534253 42.83618164 38.6875 C41.20975976 39.56116024 39.58484054 40.43762179 37.96118164 41.31640625 C36.6424707 42.02821045 36.6424707 42.02821045 35.29711914 42.75439453 C30.08858367 45.61603996 24.96528031 48.62400726 19.83618164 51.625 C18.82990723 52.2113623 17.82363281 52.79772461 16.78686523 53.40185547 C15.82087402 53.96662598 14.85488281 54.53139648 13.85961914 55.11328125 C12.93632812 55.65162598 12.01303711 56.1899707 11.06176758 56.74462891 C8.05379634 58.55810912 5.15807896 60.5111284 2.29956055 62.55151367 C-0.3389397 63.64370561 -1.83364585 63.14018876 -4.53881836 62.3125 C-7.05224609 61.12011719 -7.05224609 61.12011719 -9.72241211 59.609375 C-10.72240234 59.04710205 -11.72239258 58.4848291 -12.75268555 57.90551758 C-13.81648438 57.29732178 -14.8802832 56.68912598 -15.97631836 56.0625 C-17.07492188 55.44076904 -18.17352539 54.81903809 -19.30541992 54.1784668 C-29.43160832 48.42561142 -39.48345402 42.54315296 -49.46655273 36.54541016 C-51.17763134 35.52739095 -52.91031117 34.54577349 -54.64819336 33.57421875 C-55.58405273 32.94966797 -55.58405273 32.94966797 -56.53881836 32.3125 C-56.53881836 31.6525 -56.53881836 30.9925 -56.53881836 30.3125 C-55.82677246 29.90636475 -55.11472656 29.50022949 -54.38110352 29.08178711 C-52.22057217 27.84914748 -50.06036658 26.61593681 -47.90039062 25.38232422 C-45.39210792 23.95005087 -42.88195453 22.52112745 -40.37060547 21.09423828 C-33.89435925 17.40903597 -27.45161356 13.68045026 -21.06616211 9.83984375 C-19.88271831 9.1343222 -18.69896754 8.42931527 -17.51489258 7.72485352 C-15.26936282 6.38463424 -13.03236666 5.02999416 -10.80493164 3.65991211 C-9.79027832 3.05800049 -8.775625 2.45608887 -7.73022461 1.8359375 C-6.84536377 1.29888184 -5.96050293 0.76182617 -5.04882812 0.20849609 C-2.53881836 -0.6875 -2.53881836 -0.6875 0 0 Z " fill="#00AEEE" transform="translate(234.538818359375,161.6875)"/>
<path d="M0 0 C0.24453905 2.88012653 0.42157916 5.739478 0.5625 8.625 C0.63791016 9.43324219 0.71332031 10.24148437 0.79101562 11.07421875 C0.88445982 13.62835995 0.77866598 15.5612691 0 18 C-2.57295978 20.73101303 -5.70797125 22.25635841 -9 24 C-10.69592335 24.99306441 -12.39169139 25.9864112 -14.08390808 26.98577881 C-16.5353941 28.42463043 -19.00549423 29.82962637 -21.47705078 31.23364258 C-23.39485793 32.32378791 -25.30889649 33.42034612 -27.22265625 34.51757812 C-28.44770031 35.21652517 -29.67295307 35.91510659 -30.8984375 36.61328125 C-31.99849121 37.24016846 -33.09854492 37.86705566 -34.23193359 38.51293945 C-37 40 -37 40 -40 41 C-40 41.66 -40 42.32 -40 43 C-39.33613281 43.24234375 -38.67226562 43.4846875 -37.98828125 43.734375 C-34.23307619 45.32481479 -30.74134498 47.2560609 -27.1875 49.25 C-26.42066895 49.67821045 -25.65383789 50.1064209 -24.86376953 50.54760742 C-17.99569622 54.40266498 -11.18053237 58.34831531 -4.375 62.3125 C-3.36848389 62.89870117 -2.36196777 63.48490234 -1.32495117 64.08886719 C1.45652015 65.71593625 4.23622213 67.34302275 7 69 C7.68934631 69.26236954 8.37869263 69.52473907 9.08892822 69.7950592 C11.64129709 70.93882343 13.16480809 71.87210035 15 74 C16.14483958 78.87897192 15.93142774 83.7298659 15.78125 88.70703125 C15.76631865 90.15716934 15.75493583 91.60734793 15.74694824 93.05754089 C15.71648138 96.86445626 15.63797537 100.66890805 15.54931641 104.47485352 C15.46730123 108.36245391 15.43090395 112.25045471 15.390625 116.13867188 C15.30496731 123.76023471 15.16853692 131.37977149 15 139 C10.04804008 137.05961075 5.62669253 134.62409427 1 132 C1 137.61 1 143.22 1 149 C0.67 149 0.34 149 0 149 C0 127.88 0 106.76 0 85 C-0.99 84.505 -0.99 84.505 -2 84 C-1.67 83.34 -1.34 82.68 -1 82 C-1.71357666 81.73227783 -2.42715332 81.46455566 -3.16235352 81.1887207 C-6.06292346 79.97364068 -8.6824972 78.55749071 -11.40234375 76.98046875 C-12.44769287 76.37605957 -13.49304199 75.77165039 -14.57006836 75.14892578 C-15.6813208 74.50165527 -16.79257324 73.85438477 -17.9375 73.1875 C-19.09305279 72.51784626 -20.24873466 71.84841521 -21.40454102 71.17919922 C-30.05085972 66.16573275 -38.6593941 61.08822919 -47.23217773 55.94995117 C-48.50750366 55.18968628 -48.50750366 55.18968628 -49.80859375 54.4140625 C-50.54907959 53.9701416 -51.28956543 53.5262207 -52.05249023 53.06884766 C-54.11077888 51.86350772 -54.11077888 51.86350772 -57 51 C-57.35552446 48.1558043 -57.60883066 45.35584705 -57.8125 42.5 C-57.92142578 41.70851562 -58.03035156 40.91703125 -58.14257812 40.1015625 C-58.29258469 37.28605467 -58.14089903 35.59491632 -57 33 C-53.58184655 30.08684722 -49.82384645 28.02567415 -45.85787964 25.97259521 C-42.89517911 24.42162911 -40.02276226 22.71684457 -37.1328125 21.03515625 C-35.39104112 20.0459447 -33.64925909 19.05674849 -31.90591431 18.0703125 C-22.86854066 12.9560978 -13.85040336 7.81841203 -4.99853516 2.38696289 C-1.09454059 0 -1.09454059 0 0 0 Z " fill="#2278BB" transform="translate(288,110)"/>
<path d="M0 0 C2.97265625 1.42700195 2.97265625 1.42700195 6.0625 3.23828125 C7.75246094 4.22151367 7.75246094 4.22151367 9.4765625 5.22460938 C10.6510709 5.92052358 11.82554984 6.6164875 13 7.3125 C14.17400748 7.99755378 15.34848315 8.68180587 16.5234375 9.36523438 C25.51231155 14.62588549 25.51231155 14.62588549 29.06640625 17.35229492 C31.82887868 19.33166255 31.82887868 19.33166255 34.53173828 18.44482422 C35.34626465 17.96803223 36.16079102 17.49124023 37 17 C37.87769043 16.52191895 38.75538086 16.04383789 39.65966797 15.55126953 C40.59439941 15.00067871 41.52913086 14.45008789 42.4921875 13.8828125 C43.52730469 13.27566406 44.56242187 12.66851562 45.62890625 12.04296875 C46.70011719 11.41003906 47.77132812 10.77710938 48.875 10.125 C52.00550991 8.28463963 55.13614197 6.44470372 58.27246094 4.61425781 C59.91099247 3.64451466 61.53841457 2.65505131 63.14160156 1.62792969 C65.64271683 0.0530531 67.45575546 -0.99218788 70.44921875 -1.03515625 C74.14237896 0.46359943 77.43811124 2.45391066 80.8125 4.5625 C81.50537109 4.98724609 82.19824219 5.41199219 82.91210938 5.84960938 C84.61216951 6.89309456 86.30665476 7.94565296 88 9 C85.22262654 11.98885268 82.56071009 14.01050908 78.984375 15.9609375 C77.99155518 16.5087085 76.99873535 17.05647949 75.97583008 17.62084961 C74.91130615 18.19971924 73.84678223 18.77858887 72.75 19.375 C65.83689493 23.16739855 58.96695913 26.98052779 52.22265625 31.06640625 C51.1459668 31.71496582 50.06927734 32.36352539 48.95996094 33.03173828 C46.89651365 34.28113865 44.84080667 35.543433 42.79394531 36.81982422 C41.85776367 37.38330566 40.92158203 37.94678711 39.95703125 38.52734375 C39.14210205 39.02999756 38.32717285 39.53265137 37.48754883 40.05053711 C34.20442197 41.3036611 32.36724295 40.92626336 29 40 C26.32885742 38.74755859 26.32885742 38.74755859 23.60546875 37.1484375 C22.57856934 36.5510376 21.55166992 35.9536377 20.49365234 35.33813477 C19.40262207 34.69030029 18.3115918 34.04246582 17.1875 33.375 C16.05779785 32.71363037 14.9280957 32.05226074 13.76416016 31.37084961 C10.16703874 29.26240938 6.58221533 27.13364434 3 25 C2.39573181 24.64033142 1.79146362 24.28066284 1.16888428 23.91009521 C-6.57079842 19.30112877 -14.29288908 14.66325194 -22 10 C-18.92066082 6.83125533 -15.91815378 4.47980031 -12.125 2.1875 C-11.11695313 1.56230469 -10.10890625 0.93710937 -9.0703125 0.29296875 C-5.35243097 -1.27270401 -3.87800026 -0.95301247 0 0 Z " fill="#00ADED" transform="translate(200,271)"/>
<path d="M0 0 C0 6.6 0 13.2 0 20 C-2.60648438 21.50240234 -2.60648438 21.50240234 -5.265625 23.03515625 C-6.99350208 24.03147247 -8.7213778 25.02779105 -10.44921875 26.02416992 C-12.20040015 27.03390074 -13.95175998 28.04332207 -15.703125 29.05273438 C-17.42857246 30.04780777 -19.15411036 31.04332012 -20.85801697 32.07484436 C-23.70719411 33.78325614 -26.38960167 35.14041865 -29.52172852 36.26928711 C-33.30334148 37.78232276 -35.39246306 38.84388602 -38 42 C-40.070124 50.15818216 -38.74735183 59.2520504 -38.2512207 67.55493164 C-37.34572736 84.67268106 -37.34572736 84.67268106 -40.23614502 88.73907471 C-44.70632539 92.81863463 -50.20374105 94.6014353 -56 96 C-56.2088764 87.75935516 -56.36860936 79.51982218 -56.46630955 71.27718163 C-56.51321163 67.4492966 -56.57677372 63.62322681 -56.67895508 59.79638672 C-56.7770211 56.10038177 -56.83061017 52.40611767 -56.85389519 48.7089119 C-56.87047844 47.30130218 -56.90286737 45.89378405 -56.95157051 44.4869194 C-57.31670345 33.49869134 -57.31670345 33.49869134 -54.14385986 29.88731384 C-51.82785051 28.31549774 -49.55457237 27.13543215 -47 26 C-45.46206787 25.06764526 -45.46206787 25.06764526 -43.89306641 24.11645508 C-42.51127197 23.32597778 -42.51127197 23.32597778 -41.1015625 22.51953125 C-40.05355469 21.91761963 -39.00554687 21.31570801 -37.92578125 20.69555664 C-36.83652344 20.07414795 -35.74726563 19.45273926 -34.625 18.8125 C-32.32535685 17.49507787 -30.02587915 16.17736689 -27.7265625 14.859375 C-26.59508789 14.21162109 -25.46361328 13.56386719 -24.29785156 12.89648438 C-21.23955498 11.13776007 -18.19153473 9.36298825 -15.1484375 7.578125 C-14.2723584 7.06531982 -13.3962793 6.55251465 -12.49365234 6.02416992 C-10.86448104 5.06922097 -9.23711673 4.11118069 -7.61181641 3.1496582 C-2.22260297 0 -2.22260297 0 0 0 Z " fill="#2E416C" transform="translate(216,151)"/>
<path d="M0 0 C3.73731099 1.85285881 7.26622852 3.99495178 10.8125 6.1875 C11.74642578 6.75275391 12.68035156 7.31800781 13.64257812 7.90039062 C21.40163338 12.60105352 21.40163338 12.60105352 24.75146484 14.83447266 C25.62109863 15.40085449 26.49073242 15.96723633 27.38671875 16.55078125 C28.15588623 17.06938721 28.92505371 17.58799316 29.7175293 18.12231445 C32.0333967 19.27573795 32.0333967 19.27573795 34.62768555 18.24731445 C38.10173783 16.42072877 41.38416956 14.34561873 44.6953125 12.2421875 C47 11 47 11 50 11 C52.05386079 28.92813865 52.05386079 28.92813865 48.82080078 33.76367188 C43.95409657 38.21810416 37.497894 40.4444293 31 41 C28.29370117 39.98706055 28.29370117 39.98706055 25.54296875 38.38671875 C24.52098389 37.802854 23.49899902 37.21898926 22.44604492 36.61743164 C21.3707251 35.9805542 20.29540527 35.34367676 19.1875 34.6875 C18.07544189 34.04611084 16.96338379 33.40472168 15.81762695 32.74389648 C12.53523305 30.84558461 9.26644094 28.92559976 6 27 C4.33380068 26.02784439 2.66718631 25.0563995 1 24.0859375 C-2.39793724 22.10181423 -5.78426535 20.0989607 -9.16601562 18.08740234 C-13.76062059 15.36317837 -18.3832425 12.68643693 -23 10 C-20.01536947 6.78742633 -16.92912986 4.46898162 -13.1875 2.1875 C-12.19105469 1.56230469 -11.19460937 0.93710938 -10.16796875 0.29296875 C-6.04153262 -1.39118706 -4.29996654 -1.23236155 0 0 Z " fill="#00AEEE" transform="translate(127,228)"/>
<path d="M0 0 C2.41097891 1.18994387 4.561237 2.37942177 6.8125 3.8125 C7.40998047 4.16892578 8.00746094 4.52535156 8.62304688 4.89257812 C10.33203125 5.95703125 10.33203125 5.95703125 13 8 C13 8.99 13 9.98 13 11 C10.56557079 12.71476218 8.19927621 14.21480731 5.625 15.6875 C4.92632812 16.10322266 4.22765625 16.51894531 3.5078125 16.94726562 C-1.70539563 20 -1.70539563 20 -4 20 C-4 35.51 -4 51.02 -4 67 C-20 76 -20 76 -21 76 C-21.20884949 67.49857851 -21.36859675 58.99823405 -21.46630955 50.49487877 C-21.51321686 46.54595508 -21.57679045 42.59879017 -21.67895508 38.65087891 C-21.77699952 34.83817006 -21.83060624 31.0271483 -21.85389519 27.21327591 C-21.87048204 25.76101742 -21.90287767 24.30884797 -21.95157051 22.85731125 C-22.31773526 11.48605113 -22.31773526 11.48605113 -19.06832886 7.82159424 C-16.76694938 6.26852544 -14.53576069 5.1184626 -12 4 C-10.74423892 3.21750385 -9.49364736 2.42660923 -8.25 1.625 C-4.84245881 -0.0787706 -3.69169272 -0.46079952 0 0 Z " fill="#2E416B" transform="translate(181,260)"/>
<path d="M0 0 C0.24453905 2.88012653 0.42157916 5.739478 0.5625 8.625 C0.63791016 9.43324219 0.71332031 10.24148437 0.79101562 11.07421875 C0.88445982 13.62835995 0.77866598 15.5612691 0 18 C-2.57295978 20.73101303 -5.70797125 22.25635841 -9 24 C-10.69592335 24.99306441 -12.39169139 25.9864112 -14.08390808 26.98577881 C-16.5353941 28.42463043 -19.00549423 29.82962637 -21.47705078 31.23364258 C-23.39485793 32.32378791 -25.30889649 33.42034612 -27.22265625 34.51757812 C-28.44770031 35.21652517 -29.67295307 35.91510659 -30.8984375 36.61328125 C-31.99849121 37.24016846 -33.09854492 37.86705566 -34.23193359 38.51293945 C-37 40 -37 40 -40 41 C-40 46.94 -40 52.88 -40 59 C-46.70833333 56.76388889 -46.70833333 56.76388889 -50.1875 54.4375 C-52.5478339 52.86859956 -54.27338528 51.90887157 -57 51 C-57.35552446 48.1558043 -57.60883066 45.35584705 -57.8125 42.5 C-57.92142578 41.70851562 -58.03035156 40.91703125 -58.14257812 40.1015625 C-58.29258469 37.28605467 -58.14089903 35.59491632 -57 33 C-53.58184655 30.08684722 -49.82384645 28.02567415 -45.85787964 25.97259521 C-42.89517911 24.42162911 -40.02276226 22.71684457 -37.1328125 21.03515625 C-35.39104112 20.0459447 -33.64925909 19.05674849 -31.90591431 18.0703125 C-22.86854066 12.9560978 -13.85040336 7.81841203 -4.99853516 2.38696289 C-1.09454059 0 -1.09454059 0 0 0 Z " fill="#2E426D" transform="translate(288,110)"/>
<path d="M0 0 C0.53367187 0.37511719 1.06734375 0.75023437 1.6171875 1.13671875 C2.73480469 1.90435547 2.73480469 1.90435547 3.875 2.6875 C4.59429687 3.18636719 5.31359375 3.68523437 6.0546875 4.19921875 C10.21331837 6.74182993 14.64026768 8.82013384 19 11 C18.67 33.11 18.34 55.22 18 78 C7 72 7 72 4 70 C3.72912598 67.97328186 3.72912598 67.97328186 3.86914062 65.44946289 C3.91067261 64.50410172 3.95220459 63.55874054 3.99499512 62.58473206 C4.04820923 61.55774704 4.10142334 60.53076202 4.15625 59.47265625 C4.21198039 57.29634506 4.26259399 55.11989798 4.30859375 52.94335938 C4.39037437 49.5083286 4.49867809 46.08550482 4.69580078 42.6550293 C5.86367357 29.96629704 5.86367357 29.96629704 1.06201172 18.83856201 C-4.10171003 14.82977935 -9.86501044 12.18264889 -16 10 C-12.7140593 7.48594537 -9.33768361 5.37931773 -5.75 3.3125 C-4.13351562 2.37857422 -4.13351562 2.37857422 -2.484375 1.42578125 C-1.25460937 0.72001953 -1.25460937 0.72001953 0 0 Z " fill="#2278BC" transform="translate(285,260)"/>
<path d="M0 0 C9.92240428 4.64675975 19.39833654 9.97016174 28.78735352 15.61303711 C33.68593737 18.54848776 38.53273576 21.3186372 43.734375 23.68359375 C56.02839782 29.47000745 56.02839782 29.47000745 57.89257812 34.32421875 C58.97759316 39.9492771 58.67437362 45.34112572 58 51 C55.71125827 52.33858524 53.41930344 53.67101014 51.125 55 C50.47402344 55.3815625 49.82304687 55.763125 49.15234375 56.15625 C44.2265625 59 44.2265625 59 42 59 C42.07863281 57.72125 42.15726563 56.4425 42.23828125 55.125 C42.7001847 45.710584 42.7001847 45.710584 38.953125 37.484375 C36.20154057 35.83342434 33.41825572 34.47073457 30.48242188 33.18066406 C25.52323769 30.82202768 20.83647329 27.93910152 16.10031128 25.1661377 C14.32738085 24.13366591 12.54724928 23.1149675 10.76391602 22.10058594 C9.66233154 21.4718457 8.56074707 20.84310547 7.42578125 20.1953125 C6.42973877 19.62828613 5.43369629 19.06125977 4.4074707 18.47705078 C2 17 2 17 0 15 C-0.14497985 12.41935871 -0.18677545 9.95056116 -0.125 7.375 C-0.11597656 6.66859375 -0.10695312 5.9621875 -0.09765625 5.234375 C-0.07407603 3.48943902 -0.03820461 1.74467705 0 0 Z " fill="#2279BD" transform="translate(174,111)"/>
</svg>
